<?xml version="1.0" encoding="utf-8"?>
<!-- Generator: Adobe Illustrator 15.0.0, SVG Export Plug-In . SVG Version: 6.00 Build 0)  -->
<!DOCTYPE svg PUBLIC "-//W3C//DTD SVG 1.1//EN" "http://www.w3.org/Graphics/SVG/1.1/DTD/svg11.dtd">
<svg version="1.1" id="레이어_1" xmlns="http://www.w3.org/2000/svg" xmlns:xlink="http://www.w3.org/1999/xlink" x="0px"
	 y="0px" width="595.279px" height="841.89px" viewBox="0 0 595.279 841.89" enable-background="new 0 0 595.279 841.89"
	 xml:space="preserve">
<g>
	<polygon fill="#EFEFEF" points="240.14,350.445 240.14,351.995 241.69,350.445 	"/>
	<polygon fill="#EFEFEF" points="353.14,383.895 273.59,463.445 290.69,463.445 353.14,400.995 	"/>
	<polygon fill="#EFEFEF" points="353.14,410.895 300.589,463.445 317.69,463.445 353.14,427.995 	"/>
	<polygon points="241.69,350.445 240.14,351.995 240.14,361.895 251.59,350.445 	"/>
	<polygon points="268.69,350.445 240.14,378.995 240.14,388.895 278.59,350.445 	"/>
	<polygon points="295.69,350.445 240.14,405.995 240.14,415.895 305.589,350.445 	"/>
	<polygon points="322.69,350.445 240.14,432.995 240.14,442.894 332.589,350.445 	"/>
	<polygon points="353.14,350.445 349.69,350.445 240.14,459.995 240.14,463.445 246.59,463.445 353.14,356.895 	"/>
	<polygon points="353.14,373.995 263.69,463.445 273.59,463.445 353.14,383.895 	"/>
	<polygon points="353.14,400.995 290.69,463.445 300.589,463.445 353.14,410.895 	"/>
	<polygon points="353.14,427.995 317.69,463.445 327.589,463.445 353.14,437.894 	"/>
	<polygon points="353.14,454.995 344.69,463.445 353.14,463.445 	"/>
</g>
</svg>
