<?xml version="1.0" encoding="utf-8"?>
<!-- Generator: Adobe Illustrator 15.0.0, SVG Export Plug-In . SVG Version: 6.00 Build 0)  -->
<!DOCTYPE svg PUBLIC "-//W3C//DTD SVG 1.1//EN" "http://www.w3.org/Graphics/SVG/1.1/DTD/svg11.dtd">
<svg version="1.1" id="레이어_1" xmlns="http://www.w3.org/2000/svg" xmlns:xlink="http://www.w3.org/1999/xlink" x="0px"
	 y="0px" width="595.28px" height="841.89px" viewBox="0 0 595.28 841.89" enable-background="new 0 0 595.28 841.89"
	 xml:space="preserve">
<g>
	<path d="M317.683,298.91l-0.938,18.633h-7.383c-0.079-2.344-0.216-4.257-0.41-5.742c-0.196-1.483-0.626-2.637-1.289-3.457
		c-0.665-0.82-1.641-1.386-2.93-1.699c-1.289-0.312-3.028-0.469-5.215-0.469h-14.414v64.688c0,2.501,0.117,4.473,0.352,5.918
		c0.234,1.446,0.742,2.54,1.523,3.281c0.78,0.743,1.914,1.25,3.398,1.523c1.483,0.274,3.437,0.41,5.859,0.41v5.508
		c-2.267-0.079-4.942-0.117-8.027-0.117c-3.087,0-6.27,0-9.551,0s-6.485,0.019-9.609,0.059c-3.125,0.039-5.782,0.097-7.969,0.176
		v-5.625c2.421,0,4.354-0.136,5.801-0.41c1.445-0.273,2.558-0.78,3.34-1.523c0.78-0.742,1.308-1.835,1.582-3.281
		c0.273-1.445,0.41-3.417,0.41-5.918v-64.688h-12.305c-2.344,0-4.239,0.137-5.684,0.41c-1.446,0.274-2.618,0.802-3.516,1.582
		c-0.899,0.782-1.641,1.934-2.227,3.457s-1.153,3.497-1.699,5.918h-7.617l1.641-18.633c5.233,0.234,11.21,0.392,17.93,0.469
		c6.718,0.079,13.574,0.117,20.566,0.117c6.991,0,13.828-0.059,20.508-0.176S312.447,299.067,317.683,298.91z"/>
</g>
</svg>
